<?xml version="1.0" encoding="utf-8"?>
<svg version="1.1" id="Layer_1"
	xmlns="http://www.w3.org/2000/svg"
	xmlns:xlink="http://www.w3.org/1999/xlink" x="0px" y="0px" viewBox="0 0 512 512" style="enable-background:new 0 0 512 512;" xml:space="preserve">
	<g fill="#5b6abf">
		<path d="M474.3,173.5l-210-140c-5-3.4-11.6-3.4-16.6,0l-210,140C33.5,176.3,31,181,31,186v140c0,5,2.5,9.7,6.7,12.5l210,140
c2.5,1.7,5.4,2.5,8.3,2.5c2.9,0,5.8-0.8,8.3-2.5l210-140c4.2-2.8,6.7-7.5,6.7-12.5V186C481,181,478.5,176.3,474.3,173.5
L474.3,173.5z M256,307.9l-78-52l78-52l78,52L256,307.9z M271,178V74l168,112l-78,52L271,178L271,178z M241,178l-90,60l-78-52
L241,74V178L241,178z M124,256l-63,42V214L124,256z M151,274l90,60V438l-168-112L151,274L151,274z M271,334l90-60l78,52l-168,112
V334L271,334z M388.1,256l63-42V298L388.1,256z"/>
	</g>
</svg>
